<svg xmlns="http://www.w3.org/2000/svg" viewBox="0 0 100 100"><path d="M50.0 0.0L52.0 0.1L53.9 0.5L55.8 1.2L57.6 2.1L59.3 3.2L60.9 4.4L62.4 5.9L63.8 7.5L65.1 9.1L66.2 10.9L67.2 12.6L68.2 14.3L69.0 16.1L69.8 17.7L70.5 19.3L71.3 20.7L72.0 22.1L72.8 23.3L73.6 24.4L74.6 25.4L75.6 26.4L76.7 27.2L77.9 28.0L79.3 28.7L80.7 29.5L82.3 30.2L83.9 31.0L85.7 31.8L87.4 32.8L89.1 33.8L90.9 34.9L92.5 36.2L94.1 37.6L95.6 39.1L96.8 40.7L97.9 42.4L98.8 44.2L99.5 46.1L99.9 48.0L100.0 50.0L99.9 52.0L99.5 53.9L98.8 55.8L97.9 57.6L96.8 59.3L95.6 60.9L94.1 62.4L92.5 63.8L90.9 65.1L89.1 66.2L87.4 67.2L85.7 68.2L83.9 69.0L82.3 69.8L80.7 70.5L79.3 71.3L77.9 72.0L76.7 72.8L75.6 73.6L74.6 74.6L73.6 75.6L72.8 76.7L72.0 77.9L71.3 79.3L70.5 80.7L69.8 82.3L69.0 83.9L68.2 85.7L67.2 87.4L66.2 89.1L65.1 90.9L63.8 92.5L62.4 94.1L60.9 95.6L59.3 96.8L57.6 97.9L55.8 98.8L53.9 99.5L52.0 99.9L50.0 100.0L48.0 99.9L46.1 99.5L44.2 98.8L42.4 97.9L40.7 96.8L39.1 95.6L37.6 94.1L36.2 92.5L34.9 90.9L33.8 89.1L32.8 87.4L31.8 85.7L31.0 83.9L30.2 82.3L29.5 80.7L28.7 79.3L28.0 77.9L27.2 76.7L26.4 75.6L25.4 74.6L24.4 73.6L23.3 72.8L22.1 72.0L20.7 71.3L19.3 70.5L17.7 69.8L16.1 69.0L14.3 68.2L12.6 67.2L10.9 66.2L9.1 65.1L7.5 63.8L5.9 62.4L4.4 60.9L3.2 59.3L2.1 57.6L1.2 55.8L0.5 53.9L0.1 52.0L0.0 50.0L0.1 48.0L0.5 46.1L1.2 44.2L2.1 42.4L3.2 40.7L4.4 39.1L5.9 37.6L7.5 36.2L9.1 34.9L10.9 33.8L12.6 32.8L14.3 31.8L16.1 31.0L17.7 30.2L19.3 29.5L20.7 28.7L22.1 28.0L23.3 27.2L24.4 26.4L25.4 25.4L26.4 24.4L27.2 23.3L28.0 22.1L28.7 20.7L29.5 19.3L30.2 17.7L31.0 16.1L31.8 14.3L32.8 12.6L33.8 10.9L34.9 9.1L36.2 7.5L37.6 5.9L39.1 4.4L40.7 3.2L42.4 2.1L44.2 1.2L46.1 0.5L48.0 0.1Z"/></svg>
